HIERARCHY
ROOT Hips
{
	OFFSET 0.00000 0.00000 0.00000
	CHANNELS 6 Xposition Yposition Zposition Yrotation Zrotation Xrotation 
	JOINT Lumbar
	{
		OFFSET 0 0 0
		CHANNELS 3 Zrotation Xrotation Yrotation
		JOINT Neck
		{
			OFFSET 0.00 0.2701 0.00
			CHANNELS 3 Zrotation Xrotation Yrotation
			End Site
			{
				OFFSET 0.00 0.1379 0.00
			}
		}
		JOINT RightShoulder
		{
			OFFSET 0.0119 0.2289 0.1181
			CHANNELS 3 Zrotation Xrotation Yrotation
			JOINT RightElbow
			{
				OFFSET 0.00 -0.1475 0.00
				CHANNELS 2 Zrotation Yrotation
				JOINT RightWrist
				{
					OFFSET 0.00 -0.1605 0.00
					CHANNELS 2 Zrotation Xrotation
					End Site
					{
						OFFSET 0.0040 -0.1068 0.0006
					}
				}
			}
		}
		JOINT LeftShoulder
		{
			OFFSET 0.0119 0.2289 -0.1181
			CHANNELS 3 Zrotation Xrotation Yrotation
			JOINT LeftElbow
			{
				OFFSET 0.00 -0.1475 0.00
				CHANNELS 2 Zrotation Yrotation
				JOINT LeftWrist
				{
					OFFSET 0.00 -0.1605 0.00
					CHANNELS 2 Zrotation Xrotation
					End Site
					{
						OFFSET 0.0040 -0.1068 -0.0006
					}
				}
			}
		}
	}
	JOINT RightHip
	{
		OFFSET 0.0316 -0.0424 0.0458
		CHANNELS 3 Zrotation Xrotation Yrotation
		JOINT RightKnee
		{
			OFFSET 0.00 -0.2438 0.00
			CHANNELS 1 Zrotation
			JOINT RightAnkle
			{
				OFFSET 0.00 -0.2449 0.00
				CHANNELS 3 Zrotation Xrotation Yrotation
				End Site
				{
					OFFSET 0.1237 -0.0542 0.0051
				}
			}
		}
	}
	JOINT LeftHip
	{
		OFFSET 0.0316 -0.0424 -0.0458
		CHANNELS 3 Zrotation Xrotation Yrotation
		JOINT LeftKnee
		{
			OFFSET 0.00 -0.2438 0.00
			CHANNELS 1 Zrotation
			JOINT LeftAnkle
			{
				OFFSET 0.00 -0.2449 0.00
				CHANNELS 3 Zrotation Xrotation Yrotation
				End Site
				{
					OFFSET 0.1237 -0.0542 -0.0051
				}
			}
		}
	}
}
MOTION
Frames: 33
Frame Time: 0.02
-0.00496 -0.01471 0.06406 18.26963 -17.16557 -9.32852 52.3254 5.84956 -7.28625 -24.64962 1.35785 -2.11927 22.94592 -108.1036 15.49636 127.22939 67.6083 34.76258 -4.56159 49.07779 122.84355 -47.15048 126.71347 -78.07017 33.06564 2.30857 26.77004 11.23433 -31.57984 -17.97266 -7.06963 -0.39093 -2.48445 42.33512 -2.76075 22.88769 -31.85654 -7.94769 2.35829 3.45242
-0.00302 -0.01426 0.06492 17.90685 -17.33014 -9.0642 52.43728 5.69307 -6.69239 -24.50509 1.17428 -2.11927 21.17838 -108.43322 13.75494 127.07115 67.33351 34.74832 -4.70549 50.09752 122.6465 -48.62355 126.90784 -78.82797 32.69326 2.38826 26.71088 11.22297 -31.38879 -17.83425 -7.42686 -0.49007 -2.539 42.44115 -2.86706 22.53084 -31.83351 -7.94804 2.4408 3.49069
-0.00119 -0.01368 0.0658 17.4401 -17.46783 -8.69252 52.50067 5.55493 -5.93515 -24.34722 0.9913 -2.11927 19.03892 -108.83641 11.59489 126.84256 67.17041 34.72451 -4.93722 51.17209 122.57175 -50.30523 127.13548 -79.78517 32.18417 2.5388 26.64041 11.15476 -30.90788 -17.67206 -7.25616 -0.40918 -2.49166 42.67706 -3.0108 22.0594 -31.99653 -7.99814 2.54419 3.54068
0.00069 -0.01316 0.06666 17.02956 -17.61733 -8.37058 52.58463 5.40911 -5.26358 -24.19565 0.80521 -2.11927 17.08089 -109.2253 9.62632 126.63588 66.9365 34.69026 -5.11964 52.08878 122.47687 -51.84779 127.34298 -80.63129 31.63911 2.64811 26.57461 11.11057 -30.56135 -17.52185 -7.34662 -0.41819 -2.4953 42.84369 -3.1364 21.66629 -32.06543 -8.02333 2.635 3.58383
0.0026 -0.01262 0.06756 16.57893 -17.7688 -8.04215 52.67677 5.2602 -4.54021 -24.04389 0.63132 -2.11927 15.06167 -109.5346 7.64591 126.47199 66.78354 34.71262 -5.3388 53.57421 122.23628 -53.58523 127.57667 -81.55491 31.50573 2.79053 26.50996 11.07222 -30.20096 -17.36595 -7.39339 -0.41 -2.48854 43.05321 -3.26861 21.16853 -32.17288 -8.0581 2.73942 3.63366
0.00441 -0.0121 0.06838 16.18906 -17.90988 -7.70321 52.7393 5.12239 -3.88824 -23.88868 0.43174 -2.11928 13.08968 -110.02594 5.59745 126.20085 66.48856 34.62101 -5.50424 53.88288 122.32271 -54.96378 127.75898 -82.37346 30.4828 2.88662 26.44115 11.00919 -29.80191 -17.21681 -7.381 -0.38572 -2.47422 43.20507 -3.39524 20.85814 -32.24563 -8.08479 2.8202 3.67223
0.00599 -0.01167 0.06899 15.97916 -18.02627 -7.35513 52.73548 5.00855 -3.46205 -23.73185 0.1654 -2.11928 11.2803 -111.0108 3.41249 125.66608 65.79538 34.16324 -5.48931 50.95686 123.32534 -55.2924 127.8242 -82.77393 27.04747 2.78561 26.35617 10.88843 -29.36337 -17.08881 -7.42862 -0.39626 -2.48305 43.15743 -3.49727 21.10624 -32.16864 -8.07705 2.83104 3.67711
0.00747 -0.01127 0.06952 15.83672 -18.13353 -7.00163 52.7026 4.90569 -3.11585 -23.57117 -0.12744 -2.11928 9.54236 -112.17424 1.18345 125.0228 64.9555 33.59822 -5.41926 46.83941 124.64044 -55.25168 127.82909 -83.06966 22.72324 2.64262 26.26879 10.74565 -28.89699 -16.96909 -7.4165 -0.39007 -2.48408 43.04879 -3.59207 21.54396 -32.0521 -8.05947 2.81719 3.67015
0.00899 -0.01087 0.07008 15.67205 -18.24661 -6.65511 52.68048 4.79923 -2.74086 -23.40906 -0.41118 -2.11928 7.81129 -113.25051 -0.99188 124.41969 64.16538 33.12171 -5.38205 43.24736 125.78991 -55.38563 127.84114 -83.47487 18.79558 2.5563 26.18743 10.61545 -28.44595 -16.84788 -7.35879 -0.3642 -2.47381 42.9736 -3.69006 21.88526 -31.95929 -8.04636 2.81434 3.66844
0.01055 -0.01042 0.07065 15.46768 -18.35177 -6.28583 52.66717 4.68746 -2.32823 -23.25959 -0.68314 -2.11928 5.90279 -114.35622 -3.32466 123.85396 63.43685 32.4897 -5.3162 39.72222 127.06162 -55.50337 127.94435 -83.65563 14.88149 2.32467 26.08491 10.47242 -27.9731 -16.71638 -7.57178 -0.4401 -2.51884 42.87882 -3.79014 22.26483 -31.84844 -8.03499 2.81333 3.66779
0.012 -0.01007 0.0712 15.36398 -18.4715 -5.96398 52.62906 4.58922 -2.01509 -23.08343 -0.98512 -2.11928 4.38357 -115.44019 -5.33371 123.18394 62.56084 32.14021 -5.29425 35.77762 128.12846 -55.55792 127.83733 -84.23896 10.74592 2.37108 26.02597 10.3516 -27.54323 -16.60844 -7.23689 -0.31159 -2.45309 42.80859 -3.88322 22.61256 -31.76363 -8.01703 2.80214 3.66187
0.01316 -0.00998 0.07172 15.51702 -18.63494 -5.77593 52.53105 4.52508 -1.95863 -22.83125 -1.37048 -2.11928 3.94086 -116.43606 -6.44342 122.26575 61.1638 32.73761 -5.41997 30.92883 128.73541 -55.56457 127.21044 -86.30204 6.09234 3.31529 26.08864 10.29829 -27.23698 -16.56492 -5.19969 0.45797 -2.03995 42.82098 -3.96236 22.81391 -31.75682 -7.98277 2.77065 3.64505
0.01421 -0.00997 0.07224 15.77027 -18.81335 -5.6361 52.40907 4.47432 -2.00029 -22.55289 -1.7838 -2.11929 3.88487 -117.40058 -7.22348 121.2439 59.64866 33.59895 -5.58909 25.70184 129.08195 -55.50014 126.36437 -88.72448 1.27972 4.51959 26.19524 10.26829 -26.97667 -16.54471 -2.65085 1.4179 -1.52353 42.85957 -4.03397 22.97889 -31.7771 -7.94207 2.72941 3.62318
0.01531 -0.00992 0.07276 15.98153 -18.98416 -5.4737 52.29732 4.41757 -1.99662 -22.28892 -2.17981 -2.11929 3.64237 -118.36882 -8.14776 120.26159 58.28795 34.2447 -5.72916 20.67715 129.4387 -55.4592 125.58959 -90.73707 -3.39003 5.52399 26.28123 10.22737 -26.69812 -16.51298 -0.47639 2.23545 -1.08416 42.88552 -4.10626 23.16971 -31.7867 -7.90443 2.69126 3.60301
0.01642 -0.00988 0.07328 16.18086 -19.1577 -5.31369 52.18725 4.36033 -1.99794 -22.01488 -2.59635 -2.11929 3.45126 -119.38781 -9.09413 119.30873 56.50564 35.28186 -5.90598 15.49836 130.29901 -55.49365 124.93617 -93.72317 -8.42733 6.86562 26.36959 10.18688 -26.40759 -16.48532 2.28722 3.28482 -0.51996 42.9124 -4.18929 23.33016 -31.78911 -7.86592 2.65756 3.58479
0.01747 -0.00985 0.07381 16.42699 -19.32959 -5.16042 52.06848 4.30779 -2.01217 -21.75488 -2.9762 -2.1193 3.23942 -120.29131 -9.91974 118.26966 55.5642 35.57865 -6.01824 10.5463 129.99934 -55.29508 123.97384 -94.84832 -12.67706 7.57501 26.46381 10.15153 -26.15292 -16.45476 3.95967 3.90226 -0.18805 42.94449 -4.24903 23.53977 -31.81221 -7.82781 2.61303 3.56166
0.01837 -0.00981 0.0744 16.78553 -19.49049 -5.01252 51.93098 4.25961 -2.02917 -21.5466 -3.24952 -2.1193 2.91506 -120.88237 -10.45643 117.03265 57.07014 33.6737 -5.93336 6.50153 126.96113 -55.04224 122.25256 -90.04504 -15.13315 6.40686 26.56066 10.12308 -25.99058 -16.40919 2.35992 3.22852 -0.55154 42.98356 -4.23933 23.91939 -31.8962 -7.79245 2.53749 3.52447
0.0192 -0.00977 0.07502 17.18547 -19.64988 -4.87002 51.78583 4.21678 -2.05701 -21.35209 -3.48445 -2.1193 2.54835 -121.35756 -10.88984 115.71017 59.40914 31.03219 -5.78382 2.67743 122.70012 -54.46911 120.22016 -83.47752 -16.71735 4.60619 26.66249 10.09936 -25.86241 -16.36006 -0.3316 2.12296 -1.14718 43.02765 -4.20765 24.34427 -31.99835 -7.75775 2.45219 3.48289
0.02007 -0.00974 0.07562 17.5617 -19.81167 -4.72606 51.6447 4.17481 -2.08537 -21.1471 -3.73584 -2.1193 2.17551 -121.88576 -11.39343 114.41777 61.30405 28.78959 -5.66959 -1.37647 118.71912 -53.64825 118.30469 -78.19187 -18.40916 3.1402 26.76382 10.07467 -25.7153 -16.31343 -2.43497 1.24925 -1.61765 43.07009 -4.1908 24.73059 -32.08551 -7.72272 2.37374 3.44449
0.02091 -0.0097 0.07623 17.96413 -19.96628 -4.57967 51.50036 4.11889 -2.09437 -20.95929 -3.99268 -2.1193 1.92531 -122.41173 -11.78575 113.15898 63.47098 26.28619 -5.53187 -4.93321 115.84365 -54.41647 116.48704 -70.93518 -21.28815 1.48466 26.85898 10.046 -25.5827 -16.26405 -4.90612 0.23253 -2.1671 43.10983 -4.15377 25.19089 -32.20189 -7.68752 2.2846 3.40088
0.02178 -0.00966 0.07684 18.31803 -20.13588 -4.43887 51.36131 4.09379 -2.14478 -20.73897 -4.22834 -2.11931 1.40209 -122.91492 -12.3917 111.81088 65.2711 24.14643 -5.42713 -9.42324 110.44064 -51.88585 114.39179 -67.30584 -21.53222 0.06932 26.96793 10.0262 -25.42923 -16.21903 -6.88052 -0.59216 -2.60907 43.15719 -4.15297 25.50937 -32.26156 -7.65298 2.2157 3.36719
0.02273 -0.00961 0.07745 18.54773 -20.34188 -4.31299 51.23758 4.14662 -2.308 -20.42873 -4.41752 -2.11931 0.15389 -123.38606 -13.59712 110.24063 65.84713 23.20294 -5.43014 -16.92821 97.82056 -39.5793 111.63222 -74.58958 -14.30426 -0.51947 27.11047 10.03182 -25.19326 -16.18848 -7.18956 -0.77491 -2.69338 43.21441 -4.26344 25.41576 -32.15878 -7.61978 2.20398 3.3616
0.02369 -0.00955 0.07806 18.72257 -20.56372 -4.19209 51.11945 4.23127 -2.5118 -20.08495 -4.586 -2.11931 -1.37332 -123.83815 -15.0261 108.58317 66.02393 22.64893 -5.46865 -25.3089 82.79877 -24.09957 108.60097 -85.49452 -4.52923 -0.84687 27.26686 10.04576 -24.93754 -16.16189 -6.96834 -0.75151 -2.66276 43.28076 -4.41001 25.17979 -31.99859 -7.58735 2.21324 3.36625
0.02465 -0.00949 0.07868 18.90936 -20.78201 -4.06818 51.00007 4.30518 -2.69578 -19.75437 -4.76221 -2.11931 -2.78654 -124.29718 -16.36419 106.96404 66.39315 21.90545 -5.48957 -33.0317 69.23208 -10.56652 105.67716 -94.43673 3.81084 -1.30174 27.41919 10.05431 -24.702 -16.1325 -7.01012 -0.82753 -2.68801 43.34942 -4.53634 25.01533 -31.86533 -7.55478 2.21362 3.36644
0.02562 -0.00944 0.07928 19.1539 -20.98573 -3.94783 50.87629 4.36377 -2.88605 -19.43233 -4.94452 -2.11931 -4.14571 -124.75856 -17.65164 105.34801 66.75854 21.18245 -5.51261 -41.83388 54.09453 5.09229 102.80706 -104.66248 13.34847 -1.7448 27.56335 10.06959 -24.42213 -16.10774 -6.99745 -0.89465 -2.70608 43.39134 -4.67839 24.82366 -31.72861 -7.52125 2.21077 3.36559
0.02655 -0.00938 0.07992 19.2628 -21.2225 -3.82094 50.76142 4.46151 -3.07264 -19.08503 -5.10927 -2.11932 -5.68472 -125.21309 -19.10107 103.70514 67.00921 20.52717 -5.54276 -48.61181 41.6655 17.09271 99.76835 -113.08977 20.99032 -2.1385 27.72643 10.07308 -24.22725 -16.07364 -6.95716 -0.9253 -2.70861 43.49063 -4.79621 24.65431 -31.58595 -7.49003 2.2199 3.36948
0.02734 -0.00927 0.08065 19.02559 -21.5561 -3.67685 50.68479 4.66133 -3.23959 -18.67108 -5.23433 -2.11932 -7.63737 -125.64461 -20.92431 102.01799 67.18959 19.8938 -5.56392 -49.47033 37.39064 18.03858 96.30257 -115.74932 22.72924 -2.48991 27.95006 10.03937 -24.29048 -16.01883 -6.97086 -0.9062 -2.69649 43.74984 -4.84135 24.58053 -31.43443 -7.46383 2.25584 3.38318
0.02808 -0.00915 0.08142 18.65114 -21.92083 -3.52569 50.61454 4.89896 -3.40126 -18.23415 -5.34178 -2.11932 -9.76224 -126.07197 -22.90509 100.30646 67.24106 19.33056 -5.59436 -48.28314 35.91585 15.2235 92.68483 -116.47359 22.47864 -2.79288 28.19034 9.99399 -24.43627 -15.95356 -6.96738 -0.85434 -2.67105 44.06587 -4.86047 24.53394 -31.28004 -7.44015 2.30336 3.40146
0.02884 -0.00903 0.08218 18.32893 -22.2649 -3.37625 50.53111 5.11824 -3.56499 -17.81056 -5.45524 -2.11932 -11.81988 -126.50778 -24.82889 98.59996 67.24375 18.7863 -5.63487 -48.11054 33.10615 14.24536 89.15464 -118.02903 23.16108 -3.09385 28.41494 9.95566 -24.53187 -15.88887 -6.96872 -0.81613 -2.65105 44.35327 -4.88953 24.47543 -31.13111 -7.41608 2.34643 3.41821
0.02961 -0.00892 0.08293 18.04593 -22.63629 -3.23287 50.48976 5.34404 -3.73162 -17.37202 -5.57699 -2.11932 -13.8477 -126.9158 -26.7061 96.9127 67.66687 18.04575 -5.6192 -47.61379 30.4692 12.84276 85.5304 -119.88679 23.80176 -3.48337 28.67309 9.91027 -24.68023 -15.84113 -6.97371 -0.77999 -2.63171 44.65235 -4.92755 24.41069 -30.96262 -7.38881 2.38694 3.43303
0.03036 -0.0088 0.08369 17.65148 -22.95888 -3.07562 50.3641 5.56421 -3.89036 -16.96154 -5.67678 -2.11933 -15.96607 -127.38018 -28.70562 95.18475 67.21315 17.7191 -5.71863 -47.29011 28.17647 11.38475 82.07743 -120.64212 24.03522 -3.68543 28.86661 9.8767 -24.73863 -15.75655 -6.96273 -0.72968 -2.60691 44.94107 -4.94055 24.36655 -30.83499 -7.36885 2.4351 3.45275
0.03109 -0.00869 0.08444 16.96579 -23.13048 -2.87766 49.98745 5.76458 -4.02952 -16.618 -5.72703 -2.11935 -18.36552 -128.00775 -31.08189 93.31758 64.15792 18.57494 -6.16527 -47.981 26.10086 10.71819 79.07022 -118.50735 23.51063 -3.33595 28.86403 9.87861 -24.52886 -15.56388 -7.01426 -0.69186 -2.59257 45.18131 -4.88806 24.37942 -30.82065 -7.36802 2.50254 3.48542
0.03181 -0.00858 0.08519 16.1768 -23.25291 -2.66684 49.52854 5.95684 -4.16081 -16.30692 -5.75469 -2.11938 -20.83438 -128.69062 -33.55958 91.41758 60.26405 19.83276 -6.72168 -48.9046 24.29782 10.10421 76.25485 -115.36209 22.64969 -2.80802 28.79772 9.89278 -24.22643 -15.33603 -7.03854 -0.6359 -2.57069 45.40954 -4.8116 24.41178 -30.84784 -7.37451 2.5769 3.52267
